<?xml version="1.0" encoding="utf-8"?>
<!-- Generator: Adobe Illustrator 16.0.0, SVG Export Plug-In . SVG Version: 6.00 Build 0)  -->
<!DOCTYPE svg PUBLIC "-//W3C//DTD SVG 1.1//EN" "http://www.w3.org/Graphics/SVG/1.1/DTD/svg11.dtd">
<svg version="1.1"
	 id="svg2" xmlns:dc="http://purl.org/dc/elements/1.1/" xmlns:cc="http://creativecommons.org/ns#" xmlns:rdf="http://www.w3.org/1999/02/22-rdf-syntax-ns#" xmlns:svg="http://www.w3.org/2000/svg" xmlns:sodipodi="http://sodipodi.sourceforge.net/DTD/sodipodi-0.dtd" xmlns:inkscape="http://www.inkscape.org/namespaces/inkscape" sodipodi:docname="image.svg" inkscape:version="0.91 r13725"
	 xmlns="http://www.w3.org/2000/svg" xmlns:xlink="http://www.w3.org/1999/xlink" x="0px" y="0px" width="512px" height="451.545px"
	 viewBox="0 0 512 451.545" enable-background="new 0 0 512 451.545" xml:space="preserve">
<g>
	<g>
		<path d="M309.373,241.99l-13.121,4.163c6.158,19.405,7.633,40.102,4.37,60.269L246.7,294.765
			c1.899-15.291-0.883-30.612-8.042-44.261l14.619-9.422l-7.457-11.568l-25.93,16.712l3.728,5.784
			c8.964,13.909,11.975,30.47,8.479,46.638c-7.216,33.38-40.244,54.668-73.625,47.45c-33.382-7.217-54.667-40.245-47.452-73.625
			c7.217-33.383,40.245-54.669,73.627-47.453l6.727,1.454l14.5-67.072c18.597,5.059,35.944,14.174,50.511,26.617l8.94-10.464
			c-18.026-15.398-39.889-26.204-63.227-31.25c-77.889-16.838-154.954,32.828-171.792,110.718
			C13.466,332.91,63.133,409.977,141.022,426.814c77.888,16.839,154.954-32.827,171.793-110.716
			C318.137,291.484,316.947,265.859,309.373,241.99z M192.425,156.481l-11.661,53.937c-15.661-1.93-30.999,1.147-44.239,8.078
			l-29.88-46.363C131.851,157.689,161.905,151.529,192.425,156.481z M95.076,179.588l29.88,46.364
			c-11.781,9.195-20.911,21.895-25.621,36.954l-53.947-11.663C53.484,221.403,71.51,196.581,95.076,179.588z M42.479,264.694
			l53.954,11.665c-1.929,15.657,1.134,30.993,8.065,44.232l-46.367,29.884C43.689,325.268,37.528,295.214,42.479,264.694z
			 M137.241,411.731c-29.839-8.097-54.663-26.121-71.652-49.688l46.367-29.883c9.194,11.779,21.894,20.903,36.951,25.616
			L137.241,411.731z M150.693,414.64l11.665-53.954c15.658,1.928,30.993-1.135,44.231-8.065l29.882,46.367
			C211.266,413.431,181.213,419.593,150.693,414.64z M248.042,391.532l-29.882-46.367c11.78-9.195,20.903-21.896,25.616-36.952
			l53.954,11.665C289.633,349.718,271.608,374.542,248.042,391.532z"/>
	</g>
</g>
<g>
	<g>
		<path d="M482.846,48.276c-7.536-11.695-23.184-15.077-34.88-7.541L415.19,61.86l-6.215-9.643l-11.567,7.457l6.216,9.643
			l-79.06,50.952c-9.689,6.243-13.666,18.055-10.461,28.573l-14.306,9.22l7.457,11.569l14.306-9.219
			c3.272,2.881,7.194,4.821,11.345,5.718c6.313,1.365,13.149,0.328,18.997-3.441l79.058-50.952l6.214,9.641l11.566-7.457
			l-6.213-9.639l32.777-21.124C487,75.62,490.384,59.973,482.846,48.276z M344.445,151.12c-5.315,3.424-12.429,1.888-15.854-3.428
			c-3.427-5.317-1.889-12.429,3.428-15.854l79.059-50.952l12.426,19.282L344.445,151.12z M467.85,71.588l-32.776,21.124
			L422.646,73.43l32.775-21.123c2.66-1.714,5.766-2.186,8.639-1.565c2.871,0.621,5.504,2.335,7.218,4.992
			C474.704,61.05,473.166,68.161,467.85,71.588z"/>
	</g>
</g>
<g>
	<g>
		<path d="M300.424,193.344c-2.865-8.855-5.95-16.354-6.08-16.67l-3.802-9.209l-7.267,6.817c-0.248,0.233-6.159,5.787-12.424,12.669
			c-12.153,13.347-14.545,19.458-15.287,22.892c-2.94,13.6,5.731,27.056,19.33,29.998c13.601,2.939,27.057-5.733,29.996-19.333
			C305.631,217.073,305.977,210.519,300.424,193.344z M277.803,226.388c-6.184-1.336-10.125-7.453-8.788-13.636
			c0.776-3.594,8.116-12.623,16.305-21.137c3.939,11.137,6.895,22.39,6.116,25.985C290.1,223.782,283.984,227.724,277.803,226.388z"
			/>
	</g>
</g>
</svg>
