<?xml version="1.0" encoding="utf-8"?>
<!-- Generator: Adobe Illustrator 16.0.0, SVG Export Plug-In . SVG Version: 6.00 Build 0)  -->
<!DOCTYPE svg PUBLIC "-//W3C//DTD SVG 1.1//EN" "http://www.w3.org/Graphics/SVG/1.1/DTD/svg11.dtd">
<svg version="1.1" id="Layer_1" xmlns="http://www.w3.org/2000/svg" xmlns:xlink="http://www.w3.org/1999/xlink" x="0px" y="0px"
	 width="1068px" height="1043.5px" viewBox="250.5 -19.5 1068 1043.5" enable-background="new 250.5 -19.5 1068 1043.5"
	 xml:space="preserve">
<g>
	<g>
		<path d="M952.612,526.53l-27.204,15.582c23.044,40.235,36.286,85.6,38.731,132.062H838.49c-3.13-34.95-16.7-67.724-39.206-94.658
			l28.01-28.01l-22.168-22.166l-49.68,49.682l11.082,11.082c26.647,26.648,41.321,62.07,41.321,99.742
			c0,77.784-63.279,141.066-141.065,141.066s-141.066-63.28-141.066-141.066s63.28-141.065,141.066-141.065h15.674V392.484
			c43.832,2.312,86.838,14.254,125.254,34.943l14.866-27.598c-47.54-25.603-101.41-39.136-155.792-39.136
			c-181.496,0-329.152,147.655-329.152,329.151S485.292,1019,666.788,1019S995.94,871.344,995.94,689.848
			C995.94,632.494,980.958,576.02,952.612,526.53z M651.112,392.458v125.686c-35.792,3.238-68.456,17.469-94.597,39.271
			l-88.83-88.832C516.85,424.3,580.788,396.12,651.112,392.458z M445.521,490.748l88.831,88.832
			c-21.802,26.14-36.012,58.806-39.252,94.596H369.392C373.056,603.85,401.238,539.914,445.521,490.748z M369.392,705.521h125.724
			c3.242,35.786,17.441,68.448,39.242,94.587l-88.838,88.84C401.238,839.784,373.058,775.848,369.392,705.521z M651.112,987.24
			c-70.324-3.664-134.261-31.844-183.424-76.126l88.838-88.84c26.138,21.8,58.8,36,94.586,39.241V987.24z M682.458,987.24V861.516
			c35.786-3.241,68.45-17.441,94.586-39.241l88.838,88.84C816.72,955.398,752.782,983.578,682.458,987.24z M888.05,888.948
			l-88.838-88.84c21.8-26.139,35.998-58.801,39.242-94.586h125.724C960.514,775.846,932.334,839.782,888.05,888.948z"/>
	</g>
</g>
<g>
	<g>
		<path d="M1245.56,11.804c-22.405-22.408-58.869-22.406-81.277,0l-62.798,62.8L1083.01,56.13l-22.162,22.168l18.475,18.474
			L927.848,248.248c-18.563,18.564-21.731,46.77-9.534,68.644l-27.409,27.41l22.168,22.166l27.407-27.408
			c8.673,4.837,18.337,7.271,28.007,7.271c14.716,0,29.434-5.6,40.638-16.806l151.474-151.475l18.471,18.47l22.161-22.166
			l-18.468-18.468l62.8-62.8C1267.968,70.674,1267.968,34.214,1245.56,11.804z M986.954,307.356
			c-10.184,10.184-26.758,10.186-36.942,0c-10.186-10.187-10.186-26.758,0-36.944l151.475-151.474l36.943,36.944L986.954,307.356z
			 M1223.396,70.916l-62.8,62.8l-36.943-36.944l62.798-62.798c5.096-5.096,11.783-7.64,18.474-7.64s13.38,2.548,18.472,7.638
			C1233.582,44.158,1233.582,60.73,1223.396,70.916z"/>
	</g>
</g>
<g>
	<g>
		<path d="M909.276,422.542c-10.639-18.336-21.118-33.544-21.559-34.184l-12.896-18.671l-12.896,18.671
			c-0.439,0.64-10.924,15.848-21.558,34.184c-20.63,35.562-23.016,50.316-23.016,58.32c0,31.689,25.781,57.472,57.472,57.472
			c31.689,0,57.472-25.78,57.472-57.472C932.29,472.858,929.904,458.104,909.276,422.542z M874.82,506.988
			c-14.406,0-26.124-11.719-26.124-26.124c0-8.378,11.994-32.008,26.124-54.902c14.13,22.895,26.124,46.524,26.124,54.902
			C900.942,495.27,889.226,506.988,874.82,506.988z"/>
	</g>
</g>
</svg>
