<?xml version="1.0" encoding="utf-8"?>
<!-- Generator: Adobe Illustrator 16.0.0, SVG Export Plug-In . SVG Version: 6.00 Build 0)  -->
<!DOCTYPE svg PUBLIC "-//W3C//DTD SVG 1.1//EN" "http://www.w3.org/Graphics/SVG/1.1/DTD/svg11.dtd">
<svg version="1.1"
	 id="svg2" xmlns:dc="http://purl.org/dc/elements/1.1/" xmlns:cc="http://creativecommons.org/ns#" xmlns:rdf="http://www.w3.org/1999/02/22-rdf-syntax-ns#" xmlns:svg="http://www.w3.org/2000/svg" xmlns:sodipodi="http://sodipodi.sourceforge.net/DTD/sodipodi-0.dtd" xmlns:inkscape="http://www.inkscape.org/namespaces/inkscape" inkscape:version="0.91 r13725" sodipodi:docname="button.svg"
	 xmlns="http://www.w3.org/2000/svg" xmlns:xlink="http://www.w3.org/1999/xlink" x="0px" y="0px" width="466.193px"
	 height="403.643px" viewBox="0 0 466.193 403.643" enable-background="new 0 0 466.193 403.643" xml:space="preserve">
<text transform="matrix(1 0 0 1 87.4561 292.3662)" fill="#5D5D5D" font-family="'Arial-BoldMT'" font-size="72">BUTTON</text>
<g>
	<g>
		<path fill="#5D5D5D" d="M435.83,26.342c-7.536-11.695-23.185-15.077-34.88-7.541l-32.775,21.125l-6.215-9.643l-11.566,7.457
			l6.215,9.643l-79.06,50.952c-9.688,6.243-13.666,18.055-10.461,28.573l-14.306,9.22l7.457,11.569l14.306-9.219
			c3.272,2.881,7.194,4.821,11.345,5.718c6.313,1.365,13.149,0.328,18.998-3.441l79.057-50.952l6.216,9.641l11.565-7.457
			l-6.214-9.639l32.777-21.124C439.984,53.685,443.368,38.038,435.83,26.342z M297.431,129.186
			c-5.314,3.424-12.43,1.888-15.854-3.428c-3.428-5.317-1.891-12.429,3.428-15.854l79.061-50.952l12.426,19.282L297.431,129.186z
			 M420.834,49.653l-32.776,21.124l-12.427-19.281l32.775-21.123c2.659-1.714,5.766-2.186,8.639-1.565
			c2.871,0.621,5.504,2.335,7.218,4.992C427.688,39.116,426.15,46.227,420.834,49.653z"/>
	</g>
</g>
<path fill="none" d="M223.76,187.139c-0.945,1.509-1.564,2.769-1.761,3.679c-1.337,6.183,2.604,12.3,8.788,13.636
	c6.182,1.336,12.297-2.605,13.633-8.787c0.342-1.578-0.036-4.631-0.899-8.501l-7.662-0.011
	C231.737,187.148,227.711,187.144,223.76,187.139z"/>
<path fill="none" d="M238.485,170.203c-0.063-0.174-0.12-0.348-0.184-0.522c-0.167,0.173-0.33,0.348-0.496,0.522
	C238.031,170.203,238.262,170.203,238.485,170.203z"/>
<path fill="none" d="M257.875,198.573c-2.938,13.6-16.396,22.271-29.996,19.333c-13.599-2.941-22.271-16.397-19.33-29.998
	c0.053-0.247,0.117-0.51,0.19-0.787c-97.652-0.095-138.711,0.111-142.219,0.694c-9.809,1.629-17.302,7.997-20.05,17.038
	c-0.778,2.562-1.011,17.97-1.011,66.926c0,59.605,0.092,63.883,1.473,68.084c2.898,8.82,10.479,15.771,19.037,17.456
	c4.91,0.965,207.091,1.063,207.091,0.103v0.001c0-0.417,79.34,0.758,79.34,0.758h20.584c11.369,0,22.707-0.39,25.328-0.869
	c9.473-1.732,16.955-7.794,20.521-16.611l1.827-4.52v-64.398V207.38l-2.33-5.047c-2.798-6.059-7.563-10.544-13.953-13.126
	l-4.519-1.827l-142.307-0.195C258.626,193.248,258.324,196.488,257.875,198.573z"/>
<path fill="#5D5D5D" d="M208.549,187.909c-2.94,13.6,5.731,27.056,19.33,29.998c13.601,2.939,27.058-5.733,29.996-19.333
	c0.449-2.085,0.751-5.326-0.322-11.389c-0.694-3.924-1.963-9.027-4.145-15.774c-0.132-0.406-0.265-0.806-0.396-1.206
	c-2.748-8.319-5.563-15.164-5.687-15.464l-3.804-9.209l-7.267,6.817c-0.248,0.233-6.159,5.787-12.424,12.669
	c-1.701,1.868-3.205,3.589-4.545,5.187c-7.549,8.992-9.747,13.891-10.551,16.919C208.666,187.398,208.602,187.662,208.549,187.909z
	 M238.485,170.203c2.132,6.077,3.959,12.151,5.033,16.962c0.863,3.87,1.241,6.923,0.899,8.501
	c-1.336,6.182-7.451,10.123-13.633,8.787c-6.184-1.336-10.125-7.453-8.788-13.636c0.196-0.91,0.816-2.169,1.761-3.679
	c2.712-4.333,8.125-10.736,14.048-16.936c0.166-0.174,0.329-0.349,0.496-0.522C238.365,169.854,238.425,170.029,238.485,170.203z"/>
<path fill="none" d="M194.93,221.653V187.11c-87.734-0.063-125.072,0.151-128.41,0.706c-9.809,1.629-17.302,7.997-20.05,17.037
	c-0.778,2.563-1.011,17.971-1.011,66.926c0,59.606,0.092,63.884,1.473,68.085c2.898,8.82,10.479,15.771,19.037,17.456
	c4.91,0.965,207.091,1.063,207.091,0.103v0.001c0-0.417,79.34,0.758,79.34,0.758h20.584c11.369,0,22.707-0.39,25.328-0.869
	c9.473-1.732,16.955-7.794,20.521-16.611l1.827-4.52v-64.4v-64.399l-2.33-5.047c-2.798-6.059-7.563-10.544-13.953-13.126
	l-4.519-1.827l-126.928-0.174v34.449h-78V221.653z"/>
<path fill="none" d="M231.264,224.988c-23.104,0-42.411-16.216-47.188-37.884c-79.97-0.038-114.358,0.181-117.556,0.712
	c-9.809,1.629-17.302,7.997-20.05,17.037c-0.778,2.563-1.011,17.971-1.011,66.928c0,59.604,0.092,63.882,1.473,68.083
	c2.898,8.82,10.479,15.771,19.037,17.456c4.91,0.965,207.091,1.063,207.091,0.103v0.001c0-0.417,79.34,0.758,79.34,0.758h20.584
	c11.369,0,22.707-0.39,25.328-0.868c9.473-1.733,16.955-7.795,20.521-16.612l1.827-4.52v-64.4v-64.399l-2.33-5.047
	c-2.798-6.059-7.563-10.544-13.953-13.126l-4.519-1.827l-121.434-0.167C273.608,208.826,254.33,224.988,231.264,224.988z"/>
<path fill="#5D5D5D" d="M436.981,206.019c-3.312-15.984-17.975-30.734-34.404-34.608c-3.94-0.929-21.02-1.157-123.421-1.198
	c0.28,2.109,0.44,4.257,0.44,6.444c0,3.628-0.412,7.158-1.173,10.558l121.435,0.167l4.518,1.827
	c6.389,2.583,11.155,7.067,13.953,13.126l2.33,5.047v64.398v64.399l-1.827,4.52c-3.565,8.817-11.05,14.879-20.521,16.611
	c-2.621,0.479-13.961,0.869-25.33,0.869h-20.582c0,0-79.34-1.175-79.34-0.758v-0.001c0,0.963-202.183,0.862-207.093-0.103
	c-8.558-1.685-16.139-8.636-19.037-17.456c-1.38-4.201-1.473-8.479-1.473-68.083c0-48.957,0.233-64.365,1.011-66.926
	c2.748-9.042,10.242-15.409,20.05-17.039c3.197-0.531,37.586-0.75,117.556-0.712c-0.742-3.366-1.146-6.86-1.146-10.449
	c0-2.186,0.159-4.334,0.44-6.443c-99.932,0.044-116.725,0.276-120.629,1.197c-11.898,2.805-23.428,11.734-29.109,22.545
	c-5.564,10.59-5.455,8.896-5.189,80.467l0.239,64.157l1.912,5.147c5.542,14.925,19.317,27.409,33.504,30.367
	c2.969,0.619,35.376,0.884,108.137,0.884H276.13l94.93,0.05l13.229-0.023c15.146-0.027,19.575-0.878,28.294-5.435
	c7.535-3.938,15.929-12.332,19.868-19.872c5.485-10.499,5.381-8.978,5.394-77.68C437.854,230.271,437.574,208.884,436.981,206.019z"
	/>
</svg>
