<?xml version="1.0" encoding="utf-8"?>
<!-- Generator: Adobe Illustrator 16.0.0, SVG Export Plug-In . SVG Version: 6.00 Build 0)  -->
<!DOCTYPE svg PUBLIC "-//W3C//DTD SVG 1.1//EN" "http://www.w3.org/Graphics/SVG/1.1/DTD/svg11.dtd">
<svg version="1.1"
	 id="svg2" xmlns:dc="http://purl.org/dc/elements/1.1/" xmlns:cc="http://creativecommons.org/ns#" xmlns:rdf="http://www.w3.org/1999/02/22-rdf-syntax-ns#" xmlns:svg="http://www.w3.org/2000/svg" xmlns:sodipodi="http://sodipodi.sourceforge.net/DTD/sodipodi-0.dtd" xmlns:inkscape="http://www.inkscape.org/namespaces/inkscape" sodipodi:docname="panel.svg" inkscape:version="0.91 r13725"
	 xmlns="http://www.w3.org/2000/svg" xmlns:xlink="http://www.w3.org/1999/xlink" x="0px" y="0px" width="466.137px"
	 height="522.91px" viewBox="0 0 466.137 522.91" enable-background="new 0 0 466.137 522.91" xml:space="preserve">
<sodipodi:namedview  fit-margin-left="10" fit-margin-top="20" showgrid="false" inkscape:cy="230.0202" inkscape:cx="418.98084" inkscape:zoom="0.98994948" borderopacity="1.0" bordercolor="#666666" pagecolor="#ffffff" id="base" inkscape:window-maximized="1" inkscape:window-y="0" inkscape:window-x="0" inkscape:window-height="1391" inkscape:window-width="2560" fit-margin-bottom="20" inkscape:current-layer="layer1" inkscape:document-units="px" fit-margin-right="10" inkscape:pageopacity="0.0" inkscape:pageshadow="2">
	</sodipodi:namedview>
<g id="layer1" transform="translate(-1154.2354,-262.50153)" inkscape:label="Layer 1" inkscape:groupmode="layer">
	<path id="path4254" inkscape:connector-curvature="0" d="M1222.896,727.454c-15.493-3.288-29.019-14.258-35.788-29.024
		c-4.9-10.689-4.658-1.024-4.425-177.069l0.213-160.987l1.866-5.2c4.99-13.908,13.884-24.333,25.786-30.228
		c12.442-6.162-0.416-5.744,176.749-5.744c177.005,0,164.426-0.404,176.772,5.682c11.861,5.848,20.719,16.263,25.76,30.29l1.867,5.2
		l0.223,160.4c0.248,178.101,0.553,167.242-5.039,178.8c-7.07,14.614-19.941,24.661-35.785,27.934
		c-5.477,1.131-22.988,1.259-164.364,1.201C1249.981,728.651,1227.735,728.481,1222.896,727.454L1222.896,727.454z
		 M1551.695,700.792c5.101-2.525,9.895-7.319,12.42-12.419l1.98-4l0.211-118.6l0.211-118.601h-179.211h-179.21v117.172
		c0,129.194-0.331,120.569,4.922,128.205c2.7,3.925,8.305,8.019,12.995,9.493c2.641,0.829,34.425,1.002,162.483,0.881l159.2-0.15
		L1551.695,700.792L1551.695,700.792z M1566.333,392.573c-0.237-28.924-0.242-29.011-2.195-32.979
		c-2.498-5.075-7.389-9.965-12.463-12.463l-3.979-1.958h-160.4h-160.4l-3.979,1.958c-5.075,2.498-9.965,7.388-12.463,12.463
		c-1.953,3.969-1.958,4.055-2.195,32.979l-0.237,29h179.274h179.274L1566.333,392.573L1566.333,392.573z"/>
</g>
<line fill="none" stroke="#000000" stroke-width="27" stroke-miterlimit="10" x1="233.061" y1="82.671" x2="233.061" y2="446.621"/>
<line fill="none" stroke="#000000" stroke-width="27" stroke-miterlimit="10" x1="415.036" y1="348.955" x2="51.086" y2="348.955"/>
<line fill="none" stroke="#000000" stroke-width="27" stroke-miterlimit="10" x1="413.036" y1="254.955" x2="49.086" y2="254.955"/>
</svg>
